<svg xmlns="http://www.w3.org/2000/svg" data-name="Layer 1" viewBox="0 0 512 512"><path fill="#ffe236" d="M458.31 242.318a7.27 7.27 0 0 0-2.09 6.42l10.63 61.97a7.248 7.248 0 0 1-10.52 7.64l-55.65-29.25a6.777 6.777 0 0 0-6.5 0l-40.86 21.47-14.8 7.78a7.25 7.25 0 0 1-10.52-7.64l10.63-61.97a7.236 7.236 0 0 0-2.08-6.42l-45.03-43.88a7.252 7.252 0 0 1 4.02-12.37l16.64-2.42 19.83-2.88-.02-.03 25.53-3.71a7.282 7.282 0 0 0 5.46-3.97l27.82-56.38a7.452 7.452 0 0 1 13.25 0l27.83 56.38a7.265 7.265 0 0 0 5.46 3.97l25.52 3.71-.01.03 36.46 5.3a7.25 7.25 0 0 1 4.02 12.37Z"/><path fill="#ffd00b" d="M503.33 198.438a7.25 7.25 0 0 0-4.02-12.37l-36.46-5.3.01-.03-25.52-3.71a7.265 7.265 0 0 1-5.46-3.97l-27.83-56.38a7.452 7.452 0 0 0-13.25 0l-2.166 4.39a7.47 7.47 0 0 1 .416.71l27.83 56.38a7.265 7.265 0 0 0 5.46 3.97l25.52 3.71-.01.03 36.46 5.3a7.25 7.25 0 0 1 4.02 12.37l-45.02 43.88a7.27 7.27 0 0 0-2.09 6.42l10.63 61.97c.012.067.01.13.02.196l4.46 2.344a7.248 7.248 0 0 0 10.52-7.64l-10.63-61.97a7.27 7.27 0 0 1 2.09-6.42Z"/><path fill="#ffe236" d="M175.45 242.318a7.236 7.236 0 0 0-2.08 6.42l10.63 61.97a7.25 7.25 0 0 1-10.52 7.64l-16.96-8.91-38.7-20.34a6.777 6.777 0 0 0-6.5 0l-55.65 29.25a7.248 7.248 0 0 1-10.52-7.64l10.63-61.97a7.27 7.27 0 0 0-2.09-6.42l-45.02-43.88a7.25 7.25 0 0 1 4.02-12.37l36.46-5.3-.01-.03 25.52-3.71a7.265 7.265 0 0 0 5.46-3.97l27.83-56.38a7.452 7.452 0 0 1 13.25 0l27.82 56.38a7.282 7.282 0 0 0 5.46 3.97l25.53 3.71-.02.03 17.1 2.49 19.37 2.81a7.252 7.252 0 0 1 4.02 12.37Z"/><path fill="#ffd00b" d="m416.2 229.038-62.1 60.52a10.018 10.018 0 0 0-2.87 8.86l2.09 12.15-14.8 7.78a7.25 7.25 0 0 1-10.52-7.64l10.63-61.97a7.236 7.236 0 0 0-2.08-6.42l-45.03-43.88a7.252 7.252 0 0 1 4.02-12.37l16.64-2.42 5.13 10.39a10.014 10.014 0 0 0 7.53 5.47l85.82 12.47a10.003 10.003 0 0 1 5.54 17.06zm-240.75 13.28a7.236 7.236 0 0 0-2.08 6.42l10.63 61.97a7.25 7.25 0 0 1-10.52 7.64l-16.96-8.91 2.19-12.75a10.01 10.01 0 0 0-2.87-8.85l-62.1-60.53a10.005 10.005 0 0 1 5.54-17.06l85.82-12.46a9.993 9.993 0 0 0 7.52-5.48l4.47-9.05 19.37 2.81a7.252 7.252 0 0 1 4.02 12.37z"/><path fill="#ffe236" d="m263.936 120.048 38.377 77.76a10 10 0 0 0 7.53 5.47l85.813 12.47a10 10 0 0 1 5.542 17.057l-62.095 60.527a10 10 0 0 0-2.876 8.852l14.658 85.466a10 10 0 0 1-14.51 10.542l-76.753-40.352a10 10 0 0 0-9.306 0l-76.754 40.352a10 10 0 0 1-14.51-10.542l14.66-85.466a10 10 0 0 0-2.877-8.852l-62.095-60.527a10 10 0 0 1 5.543-17.057l85.813-12.47a10 10 0 0 0 7.529-5.47l38.377-77.76a10 10 0 0 1 17.934 0Z"/></svg>