<svg xmlns="http://www.w3.org/2000/svg" viewBox="0 0 48 48"><path fill="#f1df6f" d="M.1 22.8h47.8v25.1H.1z"/><path fill="#f26963" d="m24 4.6 11.7 11.7h4.5L24 .1 7.8 16.3h4.5z"/><path fill="#eac84c" d="M35.6 22.8v-6.6L24 4.6 12.4 16.2v6.6z"/><circle cx="24" cy="15.1" r="4.7" fill="#fff"/><path fill="#525b7a" d="M24 29.6c-3.4 0-6.2 2.8-6.2 6.2V48h12.3V35.8c.1-3.5-2.7-6.2-6.1-6.2z"/><path fill="#fff" d="M34.4 30.7h4.4v4.4h-4.4zM39.5 30.7h4.4v4.4h-4.4zM34.4 35.7h4.4v4.4h-4.4zM39.5 35.7h4.4v4.4h-4.4zM4.2 30.7h4.4v4.4H4.2zM9.2 30.7h4.4v4.4H9.2zM4.2 35.7h4.4v4.4H4.2zM9.2 35.7h4.4v4.4H9.2z"/><path fill="#303c64" d="M23.8 10.8h.4v.5h-.4zM23.8 18.8h.4v.5h-.4z"/><path fill="#303c64" d="M26.5 12.1h.5v.4h-.5z" transform="rotate(-44.992 26.812 12.268)"/><path fill="#303c64" d="M21 17.6h.4v.5H21z" transform="rotate(-135.016 21.191 17.885)"/><path fill="#303c64" d="M27.7 14.9h.5v.4h-.5zM19.8 14.9h.5v.4h-.5z"/><g><path fill="#303c64" d="M26.5 17.7h.5v.4h-.5z" transform="rotate(44.976 26.81 17.883)"/><path fill="#303c64" d="M21 12h.4v.5H21z" transform="rotate(-45.017 21.19 12.27)"/></g><path fill="#e2e3e5" d="m24 15.2 2.1.2.3-.3-.3-.3-2.1.1z"/><path fill="#e2e3e5" d="m24.2 15.3.1-2.8-.3-.4-.3.4.1 2.8z"/><path fill="#f26963" d="M24.1 14.9H24l-2.3 2.3v.1h.1l2.3-2.3v-.1z"/><circle cx="24" cy="15.1" r=".6" fill="#525b7a"/></svg>